<?xml version="1.0" encoding="utf-8"?>
<!-- Generator: Adobe Illustrator 22.1.0, SVG Export Plug-In . SVG Version: 6.00 Build 0)  -->
<svg version="1.1" id="圖層_1" xmlns="http://www.w3.org/2000/svg" xmlns:xlink="http://www.w3.org/1999/xlink" x="0px" y="0px"
	 viewBox="0 0 200 70" style="enable-background:new 0 0 200 70;" xml:space="preserve">
<style type="text/css">
	.st0{fill:#F9A532;}
	.st1{fill:#3FC1CE;}
	.st2{fill:#EF4E28;}
	.st3{fill:#FFFFFF;}
</style>
<g>
	<g>
		<g>
			<path class="st0" d="M41.3,67h-6.1c0-16,13.1-29.1,29.1-29.1V44C51.6,44,41.3,54.3,41.3,67z"/>
		</g>
		<g>
			<path class="st1" d="M5.8,67H0C0,31.6,28.8,2.7,64.3,2.7v5.8C32,8.5,5.8,34.7,5.8,67z"/>
		</g>
		<g>
			<path class="st2" d="M28.1,67h-6.2c0-23.4,19-42.4,42.4-42.4v6.2C44.3,30.8,28.1,47,28.1,67z"/>
		</g>
	</g>
	<g>
		<path class="st3" d="M79.2,52.4L76.2,53c0.6,2.1,1.1,4.7,1.7,7.8l3.1-0.7C80.4,57.4,79.8,54.7,79.2,52.4z"/>
		<path class="st3" d="M87.1,21.5L87.1,21.5l0.1,2.3h6.3v-21h-6.3V5h-0.1C86.4,3.7,84.4,2,81,2c-5.6,0-10.5,4.3-10.5,11.2
			c0,6,3.9,11.2,10.5,11.2C83.5,24.4,86.1,23.5,87.1,21.5z M76.7,13.3c0-2.4,1.6-5.4,5.2-5.4c3.5,0,5.3,2.8,5.3,5.3
			c0,2-1.3,5.4-5.2,5.4C78.2,18.6,76.7,15.3,76.7,13.3z"/>
		<path class="st3" d="M113.2,3.9c-1.1-1-3.4-1.8-5.4-1.8C104,2,102.7,4,102.1,5H102V2.8h-5.9v21h6.3V12.3c0-1.3,0-4.4,3.6-4.4
			c3.3,0,3.3,2.9,3.3,4.3v11.4h6.3V10.6C115.6,6.5,114.3,4.8,113.2,3.9z"/>
		<path class="st3" d="M126.1,24.4c1.6,0,4.2-0.2,5.4-2.9h0.1v2.2h5.9v-21h-6.3v11.5c0,3.3-1.8,4.3-3.6,4.3c-3.4,0-3.4-2.8-3.4-4.2
			V2.8h-6.3v12.5c0,2.9,0.2,4.4,1.9,6.5C121.8,24.1,124.8,24.4,126.1,24.4z"/>
		<path class="st3" d="M150.7,2c-6.4,0-11,5.4-11,11.3c0,6.2,5.1,11.1,11.1,11.1c2.2,0,4.2-0.6,6-1.9c1.8-1.2,3.3-3,4.3-5.4h-6.4
			c-0.9,1.1-1.9,2-3.8,2c-2.5,0-4.5-1.5-4.9-4h15.7c0.1-0.5,0.2-0.8,0.2-1.7C161.8,7.1,157.1,2,150.7,2z M146,10.9
			c0.3-1.2,1.5-3.6,4.8-3.6c3.2,0,4.5,2.3,4.8,3.6H146z"/>
		<path class="st3" d="M90.1,42.3l2.5-2.3c-2.1-2.7-4.4-5.3-6.7-7.8l0.3-1.1l-3.1-1c-2.1,4-4.8,7.3-7.9,9.9l1.5,3.1
			c0.8-0.5,1.5-1.1,2-1.8v2.1H82v3.7h-5.8v2.9H82v12.5l-6.6,1l0.6,3.1l15.2-2.3l0.3-3.1l-6.4,1V50.1h5.9v-2.9h-5.9v-3.7h3.2v-2.9
			h-8.5c1.8-2,3.2-3.9,4.1-5.7C86.2,37.3,88.3,39.8,90.1,42.3z"/>
		<path class="st3" d="M86.2,59.7l3,0.8c0.7-2.3,1.4-4.8,2.2-7.5l-3-0.6C87.8,54.7,87.1,57.2,86.2,59.7z"/>
		<path class="st3" d="M119.9,54.5h26.2l-10,3.1v5.9c0,1-0.7,1.5-1.7,1.5c-1.7,0-4.5-0.2-7-0.4l0.9,3.2c1.9,0.1,3.9,0.2,6.1,0.2
			c3.5,0,5.4-1.6,5.4-4.4v-4.2l14.5-5v-2.8h-34.5V54.5z"/>
		<path class="st3" d="M96.6,55.8l14.3,0c0.5,0,0.9-0.4,0.9-0.9V43.2c0-0.5-0.4-0.9-0.9-0.9H96.6v-7.2h17.1v-3H94.2
			c-0.5,0-0.9,0.4-0.9,0.9v32.5c0,0.5,0.4,0.9,0.9,0.9h20v-3H96.6V55.8z M96.6,45.2h11.8v7.6H96.6V45.2z"/>
		<path class="st3" d="M151.5,49.3c0.5,0,0.9-0.4,0.9-0.9v-7.3c0-0.5-0.4-0.9-0.9-0.9h-26.9c-0.5,0-0.9,0.4-0.9,0.9v7.3
			c0,0.5,0.4,0.9,0.9,0.9H151.5z M127.4,42.9h21.3v3.6h-21.3V42.9z"/>
		<polygon class="st3" points="139.7,30.1 136.3,30.1 136.3,35 118.8,35 118.8,37.9 157.4,37.9 157.4,35 139.7,35 		"/>
		<path class="st3" d="M161.9,66.1l2.9,0.6c0.6-2.8,1-5.8,1.4-8.8l-2.9-0.8C162.9,60.3,162.4,63.3,161.9,66.1z"/>
		<path class="st3" d="M167,57.8c0.3,3.1,0.6,5.8,0.7,8.2l3-0.7c-0.1-2.5-0.4-5.2-0.9-8.2L167,57.8z"/>
		<path class="st3" d="M171.1,57.1c0.9,3.1,1.6,5.7,2,7.7l2.7-1.3c-0.7-2.7-1.4-5.2-2.2-7.4L171.1,57.1z"/>
		<path class="st3" d="M194.7,57.6h-8v-5.7h8.8v-2.8H190v-3.9h-3.4v3.9h-5.6v2.8h2.4v7.6c0,0.5,0.4,0.9,0.9,0.9h10.5V57.6z"/>
		<path class="st3" d="M199.1,31.6h-21.7c-0.5,0-0.9,0.4-0.9,0.9v35.3h3.4V34.4h16.7v28.2c0,1.4-0.7,2.1-2,2.1
			c-1.7,0-3.7-0.1-5.8-0.3l0.7,3.1c1.4,0.1,3,0.2,4.7,0.2c3.9,0,5.8-1.8,5.8-5.4V32.5C200,32,199.6,31.6,199.1,31.6z"/>
		<polygon class="st3" points="180.9,43.7 195.6,43.7 195.6,40.9 192.6,40.9 194.8,37.4 192.2,35.8 189.1,40.9 188.6,40.9 
			187.4,40.9 184.3,35.8 181.7,37.4 183.9,40.9 180.9,40.9 		"/>
		<path class="st3" d="M171.1,47.5c0.2,0.9,0.5,1.9,0.7,3.1l-5.2,0.8c2.6-3.6,5.4-8.3,8.5-14.1l-2.7-1.6c-0.9,1.8-1.8,3.4-2.7,5.1
			l-3.9,0.3c1.6-2.4,3.4-5.8,5.6-10.3l-3-1.3c-2.4,5.9-4.5,10-6.4,12.3l0.7,2.6l5.4-0.5c-2.1,3.7-4.1,6.4-5.8,8l0.5,3.1l9.7-1.4
			c0.1,0.6,0.2,1.1,0.3,1.7l3.1-0.7c-0.6-2.8-1.1-5.4-1.7-7.8L171.1,47.5z"/>
	</g>
</g>
</svg>
